/* XPM */
static char *_7be5a22392046b9f6762771c9451b17pH3EXbQ7xt0H8oLV[] = {
/* columns rows colors chars-per-pixel */
"64 64 33 1 ",
"  c None",
". c #140900",
"X c #1A0C00",
"o c gray12",
"O c #210F00",
"+ c #291300",
"@ c #331800",
"# c gray18",
"$ c gray20",
"% c #003552",
"& c #004F7A",
"* c gray26",
"= c gray36",
"- c #786060",
"; c #960000",
": c red",
"> c #006CA6",
", c #0079BA",
"< c #007EC2",
"1 c #00A6FF",
"2 c #57C4FF",
"3 c #70CDFF",
"4 c gray57",
"5 c #A38282",
"6 c #B59191",
"7 c gray65",
"8 c #CCA6A6",
"9 c #EBBFBF",
"0 c gray76",
"q c #FFCFCF",
"w c gray89",
"e c #F3F3F3",
"r c white",
/* pixels */
"                ....XXXXOOOO++++++++OOOOXXXX....                ",
"                ....XXXXOOOO++++++++OOOOXXXX....                ",
"                XXXXOOOO++++@@@@@@@@++++OOOOXXXX                ",
"                XXXXOOOO++++@@@@@@@@++++OOOOXXXX                ",
"                OOOO9999qqqqqqqqqqqqqqqq9999OOOO                ",
"                OOOO9999qqqqqqqqqqqqqqqq9999OOOO                ",
"                9999eeee<<<<qqqqqqqq;;;;eeee9999                ",
"                9999eeee<<<<qqqqqqqq;;;;eeee9999                ",
"                9999eeee<<<<qqqqqqqq;;;;eeee9999                ",
"                9999rrrr1111qqqqqqqq::::rrrr9999                ",
"                9999rrrr1111qqqqqqqq::::rrrr9999                ",
"                88889999qqqq66666666qqqq99998888                ",
"                88889999qqqq66666666qqqq99998888                ",
"                555588889999qqqqqqqq999988885555                ",
"                555588889999qqqqqqqq999988885555                ",
"                ----555588889999999988885555----                ",
"                ----555588889999999988885555----                ",
">>>>,,,,,,,,>>>>%%%%&&&&>>>>77777777>>>>&&&&%%%%>>>>,,,,,,,,>>>>",
">>>>,,,,,,,,>>>>%%%%&&&&>>>>77777777>>>>&&&&%%%%>>>>,,,,,,,,>>>>",
",,,,,,,,,,,,,,,,&&&&>>>>1111000000001111>>>>&&&&,,,,,,,,,,,,,,,,",
",,,,,,,,,,,,,,,,&&&&>>>>1111000000001111>>>>&&&&,,,,,,,,,,,,,,,,",
",,,,,,,,,,,,,,,,>>>>11112222wwwwwwww22221111>>>>,,,,,,,,,,,,,,,,",
",,,,,,,,,,,,,,,,>>>>11112222wwwwwwww22221111>>>>,,,,,,,,,,,,,,,,",
">>>>,,,,,,,,>>>>,,,,11112222rrrrrrrr22221111,,,,>>>>,,,,,,,,>>>>",
">>>>,,,,,,,,>>>>,,,,11112222rrrrrrrr22221111,,,,>>>>,,,,,,,,>>>>",
">>>>,,,,,,,,>>>>,,,,11112222rrrrrrrr22221111,,,,>>>>,,,,,,,,>>>>",
"----55555555----111122223333rrrrrrrr333322221111----55555555----",
"----55555555----111122223333rrrrrrrr333322221111----55555555----",
"5555888888885555111122223333rrrrrrrr3333222211115555888888885555",
"5555888888885555111122223333rrrrrrrr3333222211115555888888885555",
"8888999999998888,,,,11112222rrrrrrrr22221111,,,,8888999999998888",
"8888999999998888,,,,11112222rrrrrrrr22221111,,,,8888999999998888",
"9999qqqqqqqq9999>>>>11112222wwwwwwww22221111>>>>9999qqqqqqqq9999",
"9999qqqqqqqq9999>>>>11112222wwwwwwww22221111>>>>9999qqqqqqqq9999",
"qqqqqqqqqqqqqqqq&&&&>>>>1111000000001111>>>>&&&&qqqqqqqqqqqqqqqq",
"qqqqqqqqqqqqqqqq&&&&>>>>1111000000001111>>>>&&&&qqqqqqqqqqqqqqqq",
"qqqqqqqqqqqqqqqq%%%%&&&&>>>>77777777>>>>&&&&%%%%qqqqqqqqqqqqqqqq",
"qqqqqqqqqqqqqqqq%%%%&&&&>>>>77777777>>>>&&&&%%%%qqqqqqqqqqqqqqqq",
"                ****====4444777777774444====****                ",
"                ****====4444777777774444====****                ",
"                ****====4444777777774444====****                ",
"                ====444477770000000077774444====                ",
"                ====444477770000000077774444====                ",
"                444477770000wwwwwwww000077774444                ",
"                444477770000wwwwwwww000077774444                ",
"                77770000wwwwwwwwwwwwwwww00007777                ",
"                77770000wwwwwwwwwwwwwwww00007777                ",
"                77770000wwwwwwwwwwwwwwww00007777                ",
"                77770000wwwwwwwwwwwwwwww00007777                ",
"                77770000wwwwwwwwwwwwwwww00007777                ",
"                77770000wwwwwwwwwwwwwwww00007777                ",
"                444477770000wwwwwwww000077774444                ",
"                444477770000wwwwwwww000077774444                ",
"                ====444477770000000077774444====                ",
"                ====444477770000000077774444====                ",
"                ****====4444777777774444====****                ",
"                ****====4444777777774444====****                ",
"                ****====4444777777774444====****                ",
"                oooo####$$$$$$$$$$$$$$$$####oooo                ",
"                oooo####$$$$$$$$$$$$$$$$####oooo                ",
"                ####$$$$$$$$$$$$$$$$$$$$$$$$####                ",
"                ####$$$$$$$$$$$$$$$$$$$$$$$$####                ",
"                oooo####$$$$$$$$$$$$$$$$####oooo                ",
"                oooo####$$$$$$$$$$$$$$$$####oooo                "
};
