/* XPM */
static char *_3059cba31aa43c299fdd9d5cd339f89pdQVWdHsZ9VA29ul[] = {
/* columns rows colors chars-per-pixel */
"64 64 8 1 ",
"  c None",
". c black",
"X c #69BF00",
"o c #8CFF00",
"O c #E3B37F",
"+ c #FFC98C",
"@ c gray78",
"# c white",
/* pixels */
"                                                                ",
"                                                                ",
"                                                                ",
"                                                                ",
"                       ..................                       ",
"                       ..................                       ",
"                       ..................                       ",
"                       ..................                       ",
"                  .....@@@@@@@@@@@@@@@@@@.....                  ",
"                  .....@@@@@@@@@@@@@@@@@@.....                  ",
"                  .....@@@@@@@@@@@@@@@@@@.....                  ",
"                  .....@@@@@@@@@@@@@@@@@@.....                  ",
"              ....@@@@@##############ooooooooo....              ",
"              ....@@@@@##############ooooooooo....              ",
"              ....@@@@@##############ooooooooo....              ",
"              ....@@@@@##############ooooooooo....              ",
"         .....XXXXooooo#########oooooooooooooooooo.....         ",
"         .....XXXXooooo#########oooooooooooooooooo.....         ",
"         .....XXXXooooo#########oooooooooooooooooo.....         ",
"         .....XXXXooooo#########oooooooooooooooooo.....         ",
"         .....XXXXooooo#########oooooooooooooooooo.....         ",
"         .....XXXXooooo#########oooooooooooooooooo.....         ",
"         .....XXXXooooo#########oooooooooooooooooo.....         ",
"         .....XXXXooooo#########oooooooooooooooooo.....         ",
"     ....XXXXXoooo............................oooo#####....     ",
"     ....XXXXXoooo............................oooo#####....     ",
"     ....XXXXXoooo............................oooo#####....     ",
"     ....XXXXXoooo............................oooo#####....     ",
"     ....@@@@@....OOOOO+++++++++++++++++++++++....#####....     ",
"     ....@@@@@....OOOOO+++++++++++++++++++++++....#####....     ",
"     ....@@@@@....OOOOO+++++++++++++++++++++++....#####....     ",
"     ....@@@@@....OOOOO+++++++++++++++++++++++....#####....     ",
"     ....@@@@@....OOOOO++++.....+++++....+++++....#####....     ",
"     ....@@@@@....OOOOO++++.....+++++....+++++....#####....     ",
"     ....@@@@@....OOOOO++++.....+++++....+++++....#####....     ",
"     ....@@@@@....OOOOO++++.....+++++....+++++....#####....     ",
"     ....XXXXX....OOOOO+++++++++++++++++++++++....#####....     ",
"     ....XXXXX....OOOOO+++++++++++++++++++++++....#####....     ",
"     ....XXXXX....OOOOO+++++++++++++++++++++++....#####....     ",
"     ....XXXXX....OOOOO+++++++++++++++++++++++....#####....     ",
"     ....XXXXXoooo............................####ooooo....     ",
"     ....XXXXXoooo............................####ooooo....     ",
"     ....XXXXXoooo............................####ooooo....     ",
"     ....XXXXXoooo............................####ooooo....     ",
"     ....XXXXXoooo#########oooooooooooooo#####ooooooooo....     ",
"     ....XXXXXoooo#########oooooooooooooo#####ooooooooo....     ",
"     ....XXXXXoooo#########oooooooooooooo#####ooooooooo....     ",
"     ....XXXXXoooo#########oooooooooooooo#####ooooooooo....     ",
"         .....@@@@@@@@@#######################oooo.....         ",
"         .....@@@@@@@@@#######################oooo.....         ",
"         .....@@@@@@@@@#######################oooo.....         ",
"         .....@@@@@@@@@#######################oooo.....         ",
"              .........@@@@@@@@@@@@@@@@@@.........              ",
"              .........@@@@@@@@@@@@@@@@@@.........              ",
"              .........@@@@@@@@@@@@@@@@@@.........              ",
"              .........@@@@@@@@@@@@@@@@@@.........              ",
"         .....####@@@@@..................@@@@@####.....         ",
"         .....####@@@@@..................@@@@@####.....         ",
"         .....####@@@@@..................@@@@@####.....         ",
"         .....####@@@@@..................@@@@@####.....         ",
"         ..................          ..................         ",
"         ..................          ..................         ",
"         ..................          ..................         ",
"         ..................          ..................         "
};
