/* XPM */
static char *_22e1327ddca41d999237a4b506fab397XOjMOI0xLtQ09ia[] = {
/* columns rows colors chars-per-pixel */
"64 64 7 1 ",
"  c #4F2E5E",
". c #633975",
"X c #684E74",
"o c #72587E",
"O c #785686",
"+ c #7C4792",
"@ c #9B59B6",
/* pixels */
"@@@@@@@@@@@@@@+++++++++XXXXXXXXX@@@@@@@@@.....++++@@@@@@@@@@@@@@",
"@@@@@@@@@@@@@@+++++++++XXXXXXXXX@@@@@@@@@.....++++@@@@@@@@@@@@@@",
"@@@@@@@@@@@@@@+++++++++XXXXXXXXX@@@@@@@@@.....++++@@@@@@@@@@@@@@",
"@@@@@@@@@@@@@@+++++++++XXXXXXXXX@@@@@@@@@.....++++@@@@@@@@@@@@@@",
"@@@@@@@@@@@@@@@@@@+++++....XXXXX@@@@@@@@@@@@@@@@@@@@@@@@@@@+++++",
"@@@@@@@@@@@@@@@@@@+++++....XXXXX@@@@@@@@@@@@@@@@@@@@@@@@@@@+++++",
"@@@@@@@@@@@@@@@@@@+++++....XXXXX@@@@@@@@@@@@@@@@@@@@@@@@@@@+++++",
"@@@@@@@@@@@@@@@@@@+++++....XXXXX@@@@@@@@@@@@@@@@@@@@@@@@@@@+++++",
"+++++@@@@@@@@@++++.....++++@@@@@@@@@@@@@@@@@@@@@@@@@@@@@@@@+++++",
"+++++@@@@@@@@@++++.....++++@@@@@@@@@@@@@@@@@@@@@@@@@@@@@@@@+++++",
"+++++@@@@@@@@@++++.....++++@@@@@@@@@@@@@@@@@@@@@@@@@@@@@@@@+++++",
"+++++@@@@@@@@@++++.....++++@@@@@@@@@@@@@@@@@@@@@@@@@@@@@@@@+++++",
".....@@@@+++++....+++++@@@@@@@@@....++++++++++++++.....@@@@@@@@@",
".....@@@@+++++....+++++@@@@@@@@@....++++++++++++++.....@@@@@@@@@",
".....@@@@+++++....+++++@@@@@@@@@....++++++++++++++.....@@@@@@@@@",
".....@@@@+++++....+++++@@@@@@@@@....++++++++++++++.....@@@@@@@@@",
"+++++++++.....++++@@@@@@@@@.....         @@@@@OOOO.........@@@@@",
"+++++++++.....++++@@@@@@@@@.....         @@@@@OOOO.........@@@@@",
"+++++++++.....++++@@@@@@@@@.....         @@@@@OOOO.........@@@@@",
"+++++++++.....++++@@@@@@@@@.....         @@@@@OOOO.........@@@@@",
"@@@@@@@@@@@@@@@@@@@@@@@....     oooo@@@@@@@@@@@@@@@@@@@.........",
"@@@@@@@@@@@@@@@@@@@@@@@....     oooo@@@@@@@@@@@@@@@@@@@.........",
"@@@@@@@@@@@@@@@@@@@@@@@....     oooo@@@@@@@@@@@@@@@@@@@.........",
"@@@@@@@@@@@@@@@@@@@@@@@....     oooo@@@@@@@@@@@@@@@@@@@.........",
"@@@@@@@@@@@@@@@@@@.....    .....++++@@@@@@@@@@++++@@@@@@@@@.....",
"@@@@@@@@@@@@@@@@@@.....    .....++++@@@@@@@@@@++++@@@@@@@@@.....",
"@@@@@@@@@@@@@@@@@@.....    .....++++@@@@@@@@@@++++@@@@@@@@@.....",
"@@@@@@@@@@@@@@@@@@.....    .....++++@@@@@@@@@@++++@@@@@@@@@.....",
".....    .....++++..............@@@@@@@@@@@@@@@@@@+++++@@@@@@@@@",
".....    .....++++..............@@@@@@@@@@@@@@@@@@+++++@@@@@@@@@",
".....    .....++++..............@@@@@@@@@@@@@@@@@@+++++@@@@@@@@@",
".....    .....++++..............@@@@@@@@@@@@@@@@@@+++++@@@@@@@@@",
"..............++++..............@@@@++++++++++@@@@@@@@@++++@@@@@",
"..............++++..............@@@@++++++++++@@@@@@@@@++++@@@@@",
"..............++++..............@@@@++++++++++@@@@@@@@@++++@@@@@",
"..............++++..............@@@@++++++++++@@@@@@@@@++++@@@@@",
"@@@@@++++@@@@@@@@@.....    .....++++.....+++++++++@@@@@@@@@@@@@@",
"@@@@@++++@@@@@@@@@.....    .....++++.....+++++++++@@@@@@@@@@@@@@",
"@@@@@++++@@@@@@@@@.....    .....++++.....+++++++++@@@@@@@@@@@@@@",
"@@@@@++++@@@@@@@@@.....    .....++++.....+++++++++@@@@@@@@@@@@@@",
"+++++    +++++@@@@@@@@@....     ....++++++++++++++@@@@@@@@@+++++",
"+++++    +++++@@@@@@@@@....     ....++++++++++++++@@@@@@@@@+++++",
"+++++    +++++@@@@@@@@@....     ....++++++++++++++@@@@@@@@@+++++",
"+++++    +++++@@@@@@@@@....     ....++++++++++++++@@@@@@@@@+++++",
"+++++.........++++@@@@@@@@@.........++++++++++@@@@@@@@@++++.....",
"+++++.........++++@@@@@@@@@.........++++++++++@@@@@@@@@++++.....",
"+++++.........++++@@@@@@@@@.........++++++++++@@@@@@@@@++++.....",
"+++++.........++++@@@@@@@@@.........++++++++++@@@@@@@@@++++.....",
"@@@@@@@@@+++++....+++++@@@@@@@@@+++++++++@@@@@@@@@+++++....+++++",
"@@@@@@@@@+++++....+++++@@@@@@@@@+++++++++@@@@@@@@@+++++....+++++",
"@@@@@@@@@+++++....+++++@@@@@@@@@+++++++++@@@@@@@@@+++++....+++++",
"@@@@@@@@@+++++....+++++@@@@@@@@@+++++++++@@@@@@@@@+++++....+++++",
"+++++@@@@@@@@@++++.....++++@@@@@@@@@@@@@@@@@@@++++.....++++@@@@@",
"+++++@@@@@@@@@++++.....++++@@@@@@@@@@@@@@@@@@@++++.....++++@@@@@",
"+++++@@@@@@@@@++++.....++++@@@@@@@@@@@@@@@@@@@++++.....++++@@@@@",
"+++++@@@@@@@@@++++.....++++@@@@@@@@@@@@@@@@@@@++++.....++++@@@@@",
"+++++....@@@@@@@@@+++++....+++++++++++++++++++....+++++@@@@@@@@@",
"+++++....@@@@@@@@@+++++....+++++++++++++++++++....+++++@@@@@@@@@",
"+++++....@@@@@@@@@+++++....+++++++++++++++++++....+++++@@@@@@@@@",
"+++++....@@@@@@@@@+++++....+++++++++++++++++++....+++++@@@@@@@@@",
".....@@@@+++++++++.....++++++++++++++++++.........@@@@@@@@@@@@@@",
".....@@@@+++++++++.....++++++++++++++++++.........@@@@@@@@@@@@@@",
".....@@@@+++++++++.....++++++++++++++++++.........@@@@@@@@@@@@@@",
".....@@@@+++++++++.....++++++++++++++++++.........@@@@@@@@@@@@@@"
};
