/* XPM */
static char *f839df5787db410feaea9cc68bbd73aeocte50cBPIAHWu4C[] = {
/* columns rows colors chars-per-pixel */
"64 64 5 1 ",
"  c #333535",
". c #404242",
"X c #505252",
"o c #646766",
"O c #7D807F",
/* pixels */
"........       XXXX.......        .......        XXXX       XXXX",
"........       XXXX.......        .......        XXXX       XXXX",
"........       XXXX.......        .......        XXXX       XXXX",
"........       XXXX.......        .......        XXXX       XXXX",
"ooooXXXXoooXXXXOOOOooooXXXooooXXXXooooXXXooooXXXXOOOOoooXXXXOOOO",
"ooooXXXXoooXXXXOOOOooooXXXooooXXXXooooXXXooooXXXXOOOOoooXXXXOOOO",
"ooooXXXXoooXXXXOOOOooooXXXooooXXXXooooXXXooooXXXXOOOOoooXXXXOOOO",
"ooooXXXXoooXXXXOOOOooooXXXooooXXXXooooXXXooooXXXXOOOOoooXXXXOOOO",
"XXXXoooooooXXXXooooXXXXoooooooXXXXXXXXoooooooXXXXoooooooXXXXoooo",
"XXXXoooooooXXXXooooXXXXoooooooXXXXXXXXoooooooXXXXoooooooXXXXoooo",
"XXXXoooooooXXXXooooXXXXoooooooXXXXXXXXoooooooXXXXoooooooXXXXoooo",
"XXXXoooooooXXXXooooXXXXoooooooXXXXXXXXoooooooXXXXoooooooXXXXoooo",
"XXXX....XXXXXXXXXXXXXXX...XXXXXXXXXXXX...XXXXXXXXXXXXXXXXXXXXXXX",
"XXXX....XXXXXXXXXXXXXXX...XXXXXXXXXXXX...XXXXXXXXXXXXXXXXXXXXXXX",
"XXXX....XXXXXXXXXXXXXXX...XXXXXXXXXXXX...XXXXXXXXXXXXXXXXXXXXXXX",
"XXXX....XXXXXXXXXXXXXXX...XXXXXXXXXXXX...XXXXXXXXXXXXXXXXXXXXXXX",
"XXXXXXXXXXX........XXXXXXXXXXX....XXXXXXXXXXX........XXX........",
"XXXXXXXXXXX........XXXXXXXXXXX....XXXXXXXXXXX........XXX........",
"XXXXXXXXXXX........XXXXXXXXXXX....XXXXXXXXXXX........XXX........",
"XXXXXXXXXXX........XXXXXXXXXXX....XXXXXXXXXXX........XXX........",
"XXXX....XXXXXXXXXXXXXXXXXXXXXXooooOOOOOOOooooXXXXXXXXXXXXXXXoooo",
"XXXX....XXXXXXXXXXXXXXXXXXXXXXooooOOOOOOOooooXXXXXXXXXXXXXXXoooo",
"XXXX....XXXXXXXXXXXXXXXXXXXXXXooooOOOOOOOooooXXXXXXXXXXXXXXXoooo",
"XXXX....XXXXXXXXXXXXXXXXXXXXXXooooOOOOOOOooooXXXXXXXXXXXXXXXoooo",
"XXXXXXXXXXX........       XXXXooooXXXX...........       XXXXoooo",
"XXXXXXXXXXX........       XXXXooooXXXX...........       XXXXoooo",
"XXXXXXXXXXX........       XXXXooooXXXX...........       XXXXoooo",
"XXXXXXXXXXX........       XXXXooooXXXX...........       XXXXoooo",
"ooooXXXXoooXXXXOOOOooooXXXOOOOOOOOXXXXXXXooooXXXXooooXXXOOOOOOOO",
"ooooXXXXoooXXXXOOOOooooXXXOOOOOOOOXXXXXXXooooXXXXooooXXXOOOOOOOO",
"ooooXXXXoooXXXXOOOOooooXXXOOOOOOOOXXXXXXXooooXXXXooooXXXOOOOOOOO",
"ooooXXXXoooXXXXOOOOooooXXXOOOOOOOOXXXXXXXooooXXXXooooXXXOOOOOOOO",
"XXXXoooooooXXXXooooooooXXXoooooooooooooooXXXXooooooooXXXoooooooo",
"XXXXoooooooXXXXooooooooXXXoooooooooooooooXXXXooooooooXXXoooooooo",
"XXXXoooooooXXXXooooooooXXXoooooooooooooooXXXXooooooooXXXoooooooo",
"XXXXoooooooXXXXooooooooXXXoooooooooooooooXXXXooooooooXXXoooooooo",
"XXXX....XXXXXXXXXXXXXXXXXXXXXXoooooooo...XXXX....XXXXXXXXXXXoooo",
"XXXX....XXXXXXXXXXXXXXXXXXXXXXoooooooo...XXXX....XXXXXXXXXXXoooo",
"XXXX....XXXXXXXXXXXXXXXXXXXXXXoooooooo...XXXX....XXXXXXXXXXXoooo",
"XXXX....XXXXXXXXXXXXXXXXXXXXXXoooooooo...XXXX....XXXXXXXXXXXoooo",
"XXXXXXXXXXX........XXXX.......XXXXOOOOoooXXXXXXXXXXXX.......XXXX",
"XXXXXXXXXXX........XXXX.......XXXXOOOOoooXXXXXXXXXXXX.......XXXX",
"XXXXXXXXXXX........XXXX.......XXXXOOOOoooXXXXXXXXXXXX.......XXXX",
"XXXXXXXXXXX........XXXX.......XXXXOOOOoooXXXXXXXXXXXX.......XXXX",
"........       XXXX....XXX....OOOOoooo.......    ....XXX....OOOO",
"........       XXXX....XXX....OOOOoooo.......    ....XXX....OOOO",
"........       XXXX....XXX....OOOOoooo.......    ....XXX....OOOO",
"........       XXXX....XXX....OOOOoooo.......    ....XXX....OOOO",
"ooooXXXXoooXXXXOOOOXXXXXXXXXXXooooOOOOOOOooooXXXXXXXXXXXXXXXoooo",
"ooooXXXXoooXXXXOOOOXXXXXXXXXXXooooOOOOOOOooooXXXXXXXXXXXXXXXoooo",
"ooooXXXXoooXXXXOOOOXXXXXXXXXXXooooOOOOOOOooooXXXXXXXXXXXXXXXoooo",
"ooooXXXXoooXXXXOOOOXXXXXXXXXXXooooOOOOOOOooooXXXXXXXXXXXXXXXoooo",
"XXXXoooooooXXXXoooo       XXXXooooXXXX...........       XXXXoooo",
"XXXXoooooooXXXXoooo       XXXXooooXXXX...........       XXXXoooo",
"XXXXoooooooXXXXoooo       XXXXooooXXXX...........       XXXXoooo",
"XXXXoooooooXXXXoooo       XXXXooooXXXX...........       XXXXoooo",
"XXXX....XXXXXXXXXXXooooXXXOOOOOOOOXXXXXXXooooXXXXooooXXXOOOOOOOO",
"XXXX....XXXXXXXXXXXooooXXXOOOOOOOOXXXXXXXooooXXXXooooXXXOOOOOOOO",
"XXXX....XXXXXXXXXXXooooXXXOOOOOOOOXXXXXXXooooXXXXooooXXXOOOOOOOO",
"XXXX....XXXXXXXXXXXooooXXXOOOOOOOOXXXXXXXooooXXXXooooXXXOOOOOOOO",
"XXXXXXXXXXX........ooooXXXoooooooooooooooXXXXooooooooXXXoooooooo",
"XXXXXXXXXXX........ooooXXXoooooooooooooooXXXXooooooooXXXoooooooo",
"XXXXXXXXXXX........ooooXXXoooooooooooooooXXXXooooooooXXXoooooooo",
"XXXXXXXXXXX........ooooXXXoooooooooooooooXXXXooooooooXXXoooooooo"
};
